<?xml version="1.0" encoding="iso-8859-1"?>
<!-- Generator: Adobe Illustrator 18.0.0, SVG Export Plug-In . SVG Version: 6.00 Build 0)  -->
<!DOCTYPE svg PUBLIC "-//W3C//DTD SVG 1.1//EN" "http://www.w3.org/Graphics/SVG/1.1/DTD/svg11.dtd">
<svg version="1.1" id="Capa_1" xmlns="http://www.w3.org/2000/svg" xmlns:xlink="http://www.w3.org/1999/xlink" x="0px" y="0px"
	 viewBox="0 0 298.783 298.783" style="enable-background:new 0 0 298.783 298.783;" xml:space="preserve">
<g>
	<path d="M134.333,31.008h30.116c1.471,0,2.823-0.806,3.523-2.1c0.699-1.294,0.633-2.867-0.172-4.098L152.742,1.811
		c-0.74-1.13-2-1.811-3.35-1.811c-1.351,0-2.61,0.681-3.35,1.811L130.983,24.81c-0.806,1.231-0.872,2.804-0.172,4.098
		C131.51,30.201,132.863,31.008,134.333,31.008z"/>
	<path d="M164.449,267.775h-30.116c-1.471,0-2.823,0.806-3.523,2.1c-0.699,1.294-0.633,2.867,0.172,4.098l15.058,22.999
		c0.74,1.13,2,1.811,3.35,1.811c1.351,0,2.61-0.681,3.35-1.811l15.058-22.999c0.806-1.231,0.872-2.804,0.172-4.098
		C167.273,268.581,165.92,267.775,164.449,267.775z"/>
	<path d="M73.058,54.34c1.253,0.771,2.827,0.793,4.101,0.057l26.081-15.058c1.274-0.735,2.042-2.11,2.001-3.58
		c-0.041-1.47-0.885-2.8-2.198-3.463l-24.54-12.389c-1.206-0.609-2.637-0.568-3.807,0.107c-1.17,0.675-1.92,1.895-1.996,3.243
		l-1.541,27.447C71.076,52.173,71.805,53.569,73.058,54.34z"/>
	<path d="M225.725,244.443c-1.253-0.771-2.827-0.793-4.101-0.058l-26.081,15.058c-1.274,0.736-2.042,2.11-2.001,3.58
		c0.041,1.47,0.885,2.8,2.198,3.463l24.54,12.389c1.206,0.609,2.637,0.568,3.807-0.107c1.17-0.675,1.92-1.895,1.996-3.244
		l1.541-27.446C227.707,246.61,226.977,245.214,225.725,244.443z"/>
	<path d="M32.296,103.043c0.663,1.313,1.992,2.157,3.463,2.198s2.845-0.727,3.58-2.001l15.058-26.081
		c0.735-1.274,0.713-2.848-0.058-4.101c-0.771-1.253-2.166-1.982-3.635-1.9L23.258,72.7c-1.349,0.076-2.568,0.826-3.244,1.996
		c-0.675,1.17-0.716,2.601-0.107,3.807L32.296,103.043z"/>
	<path d="M266.486,195.74c-0.663-1.313-1.992-2.157-3.463-2.198s-2.845,0.727-3.58,2.001l-15.058,26.081
		c-0.735,1.274-0.713,2.848,0.057,4.101c0.771,1.253,2.167,1.982,3.635,1.9l27.446-1.541c1.349-0.076,2.568-0.826,3.244-1.996
		c0.675-1.17,0.715-2.601,0.107-3.807L266.486,195.74z"/>
	<path d="M28.907,167.972c1.294-0.699,2.1-2.052,2.1-3.523v-30.116c0-1.471-0.806-2.823-2.1-3.523s-2.867-0.633-4.098,0.173
		L1.811,146.041c-1.13,0.74-1.811,2-1.811,3.35c0,1.351,0.681,2.61,1.811,3.35L24.81,167.8
		C26.04,168.605,27.614,168.672,28.907,167.972z"/>
	<path d="M296.972,146.041l-22.999-15.058c-1.231-0.806-2.804-0.872-4.098-0.173c-1.294,0.699-2.1,2.052-2.1,3.523v30.116
		c0,1.471,0.806,2.823,2.1,3.523s2.867,0.633,4.098-0.172l22.999-15.058c1.13-0.74,1.811-2,1.811-3.35
		C298.783,148.041,298.102,146.781,296.972,146.041z"/>
	<path d="M290.212,10.713c-2.929-2.929-6.768-4.393-10.607-4.393s-7.678,1.464-10.606,4.393L12.857,266.856
		c-5.858,5.858-5.858,15.355,0,21.213c2.929,2.929,6.768,4.393,10.607,4.393c2.879,0,5.758-0.824,8.254-2.471
		c0.416-0.275,0.821-0.572,1.214-0.892s0.773-0.664,1.139-1.03L290.212,31.927C296.07,26.069,296.07,16.571,290.212,10.713z"/>
	<path d="M93.213,144.073c2.525-26.882,23.979-48.335,50.86-50.86l27.396-27.396c-7.051-1.864-14.45-2.862-22.078-2.862
		c-47.661,0-86.437,38.775-86.437,86.437c0,7.628,0.998,15.027,2.862,22.078L93.213,144.073z"/>
	<path d="M204.868,159.698c-4.239,22.868-22.302,40.931-45.17,45.17l-28.933,28.933c6.002,1.323,12.233,2.027,18.626,2.027
		c47.661,0,86.437-38.775,86.437-86.437c0-6.394-0.704-12.625-2.027-18.626L204.868,159.698z"/>
</g>
<g>
</g>
<g>
</g>
<g>
</g>
<g>
</g>
<g>
</g>
<g>
</g>
<g>
</g>
<g>
</g>
<g>
</g>
<g>
</g>
<g>
</g>
<g>
</g>
<g>
</g>
<g>
</g>
<g>
</g>
</svg>
