<?xml version="1.0" encoding="iso-8859-1"?>
<!-- Generator: Adobe Illustrator 19.0.0, SVG Export Plug-In . SVG Version: 6.00 Build 0)  -->
<svg version="1.1" id="Capa_1" xmlns="http://www.w3.org/2000/svg" xmlns:xlink="http://www.w3.org/1999/xlink" x="0px" y="0px"
	 viewBox="0 0 512 512" style="enable-background:new 0 0 512 512;" xml:space="preserve">
<path style="fill:#00ECFF;" d="M506.648,87.084c-3.388-2.805-7.854-3.952-12.178-3.132c-1.022,0.195-103.772,19.432-238.47,19.432
	S18.552,84.147,17.533,83.953c-4.322-0.823-8.789,0.324-12.18,3.129C1.962,89.888,0,94.06,0,98.461v315.077
	c0,4.4,1.963,8.571,5.353,11.377c3.389,2.805,7.853,3.953,12.178,3.132c1.021-0.195,103.771-19.432,238.469-19.432
	s237.448,19.237,238.47,19.432l0,0c0.919,0.175,1.842,0.261,2.761,0.261c3.409,0,6.746-1.182,9.416-3.39
	c3.391-2.807,5.353-6.979,5.353-11.38V98.461C512,94.061,510.037,89.89,506.648,87.084z"/>
<path style="fill:#97FAFF;" d="M17.533,83.953c-4.322-0.823-8.789,0.324-12.18,3.129C1.962,89.888,0,94.06,0,98.461v315.077
	c0,4.4,1.963,8.571,5.353,11.377c3.389,2.805,7.853,3.953,12.178,3.132c1.021-0.195,103.771-19.432,238.469-19.432V103.384
	C121.302,103.384,18.552,84.147,17.533,83.953z"/>
<path style="fill:#009B72;" d="M512,266.338l-92.173-43.394c-3.729-1.755-8.023-1.871-11.842-0.322l-118.154,47.947
	c-5.698,2.313-9.368,7.913-9.211,14.06c0.156,6.147,4.104,11.554,9.912,13.575l201.846,70.207c1.58,0.55,3.221,0.82,4.851,0.82
	c3.028,0,6.026-0.931,8.558-2.732c3.897-2.771,6.212-7.257,6.212-12.038v-78.769C512,269.97,512,266.338,512,266.338z"/>
<path style="fill:#00B77C;" d="M162.391,222.357c-2.829-0.985-5.891-1.085-8.78-0.288L0,264.369c0,0,0,4.679,0,11.323v137.497
	c0,3.296,0.959,6.562,2.941,9.197c3.461,4.601,9.136,6.696,14.589,5.662c1.022-0.195,103.772-19.432,238.47-19.432
	s237.448,19.237,238.467,19.431c0.919,0.175,1.843,0.261,2.764,0.261c4.785,0,9.429-2.328,12.285-6.559
	c1.687-2.498,2.484-5.492,2.484-8.507v-69.281L162.391,222.357z"/>
<path style="fill:#82C64E;" d="M162.391,222.357c-2.829-0.985-5.891-1.085-8.78-0.288L0,264.369c0,0,0,4.679,0,11.323v137.497
	c0,3.296,0.959,6.562,2.941,9.197c3.461,4.601,9.136,6.696,14.589,5.662c1.022-0.195,103.772-19.432,238.47-19.432V254.917
	L162.391,222.357z"/>
<path style="fill:#FFB300;" d="M275.692,162.461c-19.002,0-34.462,15.459-34.462,34.462s15.459,34.462,34.462,34.462
	c19.002,0,34.462-15.459,34.462-34.462S294.694,162.461,275.692,162.461z"/>
<path style="fill:#FFCA28;" d="M256,168.666c-8.92,6.235-14.769,16.572-14.769,28.257s5.85,22.022,14.769,28.256V168.666z"/>
<g>
</g>
<g>
</g>
<g>
</g>
<g>
</g>
<g>
</g>
<g>
</g>
<g>
</g>
<g>
</g>
<g>
</g>
<g>
</g>
<g>
</g>
<g>
</g>
<g>
</g>
<g>
</g>
<g>
</g>
</svg>
