<?xml version="1.0" encoding="iso-8859-1"?>
<!-- Generator: Adobe Illustrator 19.0.0, SVG Export Plug-In . SVG Version: 6.00 Build 0)  -->
<svg version="1.1" id="Capa_1" xmlns="http://www.w3.org/2000/svg" xmlns:xlink="http://www.w3.org/1999/xlink" x="0px" y="0px"
	 viewBox="0 0 512 512" style="enable-background:new 0 0 512 512;" xml:space="preserve">
<path style="fill:#FF9D00;" d="M263.837,82.733h-15.673V13.874c0-4.284,3.553-7.837,7.837-7.837l0,0
	c4.284,0,7.837,3.553,7.837,7.837V82.733z"/>
<path style="fill:#F96726;" d="M194.247,95.063l-28.735-78.89c-1.463-4.075,0.627-8.568,4.702-10.031l0,0
	c4.075-1.463,8.568,0.627,10.031,4.702l28.735,78.89L194.247,95.063z"/>
<path style="fill:#FF9D00;" d="M147.853,124.947L57.26,17.114c-2.821-3.344-2.299-8.255,0.94-11.076l0,0
	c3.344-2.821,8.255-2.299,11.076,0.94l90.593,107.938L147.853,124.947z"/>
<path style="fill:#F96726;" d="M114.416,169.042L9.195,108.333c-3.762-2.194-5.016-7.001-2.821-10.658l0,0
	c2.194-3.762,7.001-5.016,10.658-2.821l105.221,60.604L114.416,169.042z"/>
<g>
	<path style="fill:#FF9D00;" d="M494.968,388.679l-105.221-60.709l7.837-13.584l105.221,60.709
		c3.762,2.194,5.015,7.001,2.821,10.658l0,0C503.432,389.62,498.625,390.874,494.968,388.679z"/>
	<path style="fill:#FF9D00;" d="M98.116,221.809l-85.368-15.047c-4.284-0.731-7.105-4.807-6.374-9.091l0,0
		c0.731-4.284,4.807-7.105,9.091-6.374l85.368,15.047L98.116,221.809z"/>
</g>
<g>
	<path style="fill:#F96726;" d="M496.535,292.026l-85.368-15.047l2.717-15.464l85.368,15.047c4.284,0.731,7.105,4.807,6.374,9.091
		l0,0C504.895,289.936,500.82,292.862,496.535,292.026z"/>
	<path style="fill:#F96726;" d="M6.374,285.757L6.374,285.757c-0.731-4.284,2.09-8.359,6.374-9.091l85.368-15.047l2.717,15.464
		l-85.368,15.047C11.18,292.862,7.105,289.936,6.374,285.757z"/>
</g>
<g>
	<path style="fill:#FF9D00;" d="M413.884,221.809l-2.717-15.464l85.368-15.047c4.284-0.731,8.359,2.09,9.091,6.374l0,0
		c0.731,4.284-2.09,8.359-6.374,9.091L413.884,221.809z"/>
	<path style="fill:#FF9D00;" d="M6.374,385.858L6.374,385.858c-2.194-3.762-0.836-8.568,2.821-10.658l105.221-60.709l7.837,13.584
		L17.032,388.784C13.375,390.874,8.568,389.62,6.374,385.858z"/>
</g>
<path style="fill:#F96726;" d="M397.584,169.042l-7.837-13.584L494.968,94.75c3.762-2.194,8.568-0.836,10.658,2.821l0,0
	c2.194,3.762,0.836,8.568-2.821,10.658L397.584,169.042z"/>
<path style="fill:#FF9D00;" d="M364.147,124.947l-12.016-10.031L442.619,7.083c2.821-3.344,7.732-3.762,11.076-0.94l0,0
	c3.344,2.821,3.762,7.732,0.94,11.076L364.147,124.947z"/>
<path style="fill:#F96726;" d="M317.753,95.063l-14.733-5.329l28.735-78.89c1.463-4.075,5.956-6.165,10.031-4.702l0,0
	c4.075,1.463,6.165,5.956,4.702,10.031L317.753,95.063z"/>
<path style="fill:#FF8B00;" d="M419.004,238.005c0,8.359-0.627,16.509-1.776,24.451c-3.866,25.6-13.688,49.319-28.003,69.59
	l-269.584-4.702c-12.643-19.226-21.211-41.169-24.869-64.888c-1.254-7.941-1.776-16.091-1.776-24.451
	c0-90.07,72.934-163.004,163.004-163.004C345.966,75.001,419.004,148.039,419.004,238.005z"/>
<path style="fill:#FF9D00;" d="M417.228,262.456c-3.866,25.6-13.688,49.319-28.003,69.59L251.82,472.062l-132.18-144.718
	c-12.643-19.226-21.211-41.169-24.869-64.888C106.58,183.984,174.289,123.902,256,123.902S405.42,183.984,417.228,262.456z"/>
<g>
	<polygon style="fill:#FCC368;" points="171.99,507.798 341.891,263.814 512,507.798 	"/>
	<polyline style="fill:#FCC368;" points="0,507.798 185.574,227.034 388.18,507.798 	"/>
</g>
<g>
	<polygon style="fill:#302C3E;" points="278.152,355.347 256.627,386.276 199.576,337.793 164.049,354.511 143.882,290.145 
		0,507.798 388.18,507.798 	"/>
	<polygon style="fill:#302C3E;" points="405.838,355.556 377.208,417.205 324.963,394.217 289.437,429.744 219.533,439.566 
		171.99,507.798 512,507.798 	"/>
</g>
<g>
</g>
<g>
</g>
<g>
</g>
<g>
</g>
<g>
</g>
<g>
</g>
<g>
</g>
<g>
</g>
<g>
</g>
<g>
</g>
<g>
</g>
<g>
</g>
<g>
</g>
<g>
</g>
<g>
</g>
</svg>
